<?xml version="1.0" encoding="utf-8"?>
<!-- Generator: Adobe Illustrator 26.5.0, SVG Export Plug-In . SVG Version: 6.00 Build 0)  -->
<svg version="1.1" id="Layer_1" xmlns="http://www.w3.org/2000/svg" xmlns:xlink="http://www.w3.org/1999/xlink" x="0px" y="0px"
	 width="2136px" height="190px" viewBox="0 0 2136 190" style="enable-background:new 0 0 2136 190;" xml:space="preserve">
<style type="text/css">
	.st0{fill:#404041;}
	.st1{fill:#EE6331;}
	.st2{fill:#447099;}
</style>
<g id="full-rgb">
	<path id="fullLogo" class="st0" d="M228.2,50.8h27.2v5.1c5.1-4.7,14.3-7.2,21.8-7.2c29.7,0,48.1,20.5,48.1,49.4
		c0,29.7-19.2,51.9-48.9,51.9c-9.4,0-18-1.5-21-4.9v41h-27.3V50.8H228.2z M255.4,85.2v31.2c3,4.5,9.6,8.3,17.3,8.3
		c15.2,0,24.4-9.6,24.4-24.4c0-17.3-8.6-26.1-22.9-26.1C266.3,73.9,259,78.2,255.4,85.2z"/>
	<path id="fullLogo-2" class="st0" d="M387.3,48.7c31.2,0,53.2,21.2,53.2,50.7c0,29.3-22,50.5-53.2,50.5
		c-30.3,0-52.8-21.2-52.8-50.6C334.5,70,356.1,48.7,387.3,48.7z M387.3,124.7c14.8,0,25-9.4,25-25.2c0-16.2-11.3-25.4-25-25.4
		s-24.6,9.2-24.6,25.4C362.7,113.8,372.6,124.7,387.3,124.7z"/>
	<path id="fullLogo-3" class="st0" d="M450.8,79c0-18.8,15.6-30.3,42.1-30.3c18.6,0,34.4,8.7,40.6,17.7l-18.6,17.8
		c-6.4-6.6-15.2-10.2-27.4-10.2c-5.1,0-8.5,1.1-8.5,4.7c0,8.5,55.4,5.8,55.4,40.4c0,21.4-19.2,30.8-41.3,30.8
		c-23.9,0-39.8-10.9-46.8-23.7l21.6-14.7c5.3,6.8,16.2,13,28.2,13c6.6,0,10.1-1.7,10.1-5.3C506.2,109.8,450.8,112.3,450.8,79z"/>
	<path id="fullLogo-4" class="st0" d="M562.5,11.4c8.8,0,15.2,5.8,15.2,13.5c0,8.1-6.4,13.9-15.2,13.9c-9.6,0-15.4-5.8-15.4-13.9
		C547.1,17.2,553.5,11.4,562.5,11.4z M548.8,50.8H576v97.7h-27.2V50.8z"/>
	<path id="fullLogo-5" class="st0" d="M586.5,50.8H605V28.1h27.2v22.7h29.9v25.4h-29.9V108c0,11.8,2.6,16.3,10,16.3
		c6.4,0,11.5-2.3,16.7-6.4l11.3,19.3c-6.8,7.1-17.3,12.4-30.6,12.4c-20.5,0-34.6-11.1-34.6-33.6V76.2h-18.6L586.5,50.8z"/>
	<path id="fullLogo-6" class="st0" d="M675.7,50.9h11.7v2.8H683v10.7h-3V53.7h-4.3V50.9z"/>
	<path id="fullLogo-7" class="st0" d="M688.9,50.9h2.8l4.3,6.5l4.1-6.5h2.7v13.5h-3v-8.1l-3.5,5.4h-0.8l-3.6-5.4v8.2h-3V50.9z"/>
	<polygon id="fullLogo-8" class="st1" points="38,80.6 46.2,77 82.9,60.8 90.9,57.2 179.7,18 179.7,65.3 143.8,80.6 135.7,77 
		173.2,61 173.2,27.9 98.9,60.8 90.9,64.3 54.3,80.5 46.2,84.1 20.3,95.5 20.3,104 45.8,115.3 53.9,118.9 91.5,135.4 99.5,139 
		173.2,171.6 173.2,138.1 136.1,122.3 144.2,118.7 179.7,133.9 179.7,181.5 91.5,142.6 83.6,139 45.8,122.3 37.6,118.7 13.8,108.2 
		13.8,91.3 	"/>
	<polygon class="st1" points="99.2,99.6 135.6,84.1 127.5,80.5 82.6,99.6 127.9,118.9 136,115.3 	"/>
	<polygon id="fullLogo-9" class="st2" points="45.8,115.3 53.9,118.9 90.9,103.1 82.7,99.6 	"/>
	<polygon id="fullLogo-10" class="st2" points="54.3,80.5 46.2,84.1 82.7,99.6 90.9,96.1 	"/>
	<polygon id="fullLogo-11" class="st2" points="143.8,80.6 135.7,77 98.9,60.8 90.9,57.2 2.1,18 2.1,65.3 38,80.6 46.2,77 8.6,61 
		8.6,27.9 82.9,60.8 90.9,64.3 127.5,80.5 135.6,84.1 161.6,95.5 161.6,104 136.1,115.3 127.9,118.9 90.4,135.4 82.4,139 8.6,171.6 
		8.6,138.1 45.8,122.3 37.6,118.7 2.1,133.9 2.1,181.5 90.3,142.6 98.3,139 136.1,122.3 144.2,118.7 168,108.2 168,91.3 	"/>
</g>
<g>
	<g>
		<path class="st0" d="M771.3,19c16.6,0,28.7,3.2,36.3,9.7c7.6,6.5,11.5,15.7,11.5,27.8c0,5.4-0.9,10.6-2.7,15.5
			c-1.8,4.9-4.7,9.2-8.7,12.9c-4,3.7-9.2,6.7-15.7,8.8c-6.5,2.1-14.4,3.2-23.8,3.2h-15.6v50.5h-14.9V19H771.3z M769.9,31.7h-17.2
			v52.4h14c8.2,0,15-0.9,20.5-2.6c5.5-1.8,9.6-4.6,12.3-8.6c2.8-4,4.1-9.2,4.1-15.8c0-8.6-2.7-14.9-8.2-19.1
			C790,33.8,781.5,31.7,769.9,31.7z"/>
		<path class="st0" d="M875.3,49.6c11.5,0,20,2.6,25.6,7.7c5.6,5.2,8.3,13.4,8.3,24.7v65.5h-10.6l-2.8-14.2h-0.7
			c-2.7,3.5-5.5,6.5-8.4,8.8c-2.9,2.4-6.3,4.2-10.2,5.4c-3.8,1.2-8.5,1.8-14.1,1.8c-5.9,0-11.1-1-15.6-3.1
			c-4.5-2.1-8.1-5.2-10.7-9.3c-2.6-4.2-3.9-9.4-3.9-15.8c0-9.6,3.8-17,11.4-22.1c7.6-5.2,19.2-8,34.8-8.4l16.6-0.7v-5.9
			c0-8.3-1.8-14.2-5.4-17.5c-3.6-3.3-8.6-5-15.1-5c-5,0-9.8,0.7-14.4,2.2c-4.6,1.5-8.9,3.2-13,5.2l-4.5-11.1
			c4.3-2.2,9.3-4.1,14.9-5.7S869.1,49.6,875.3,49.6z M894.8,100l-14.7,0.6c-12,0.5-20.5,2.4-25.4,5.9c-4.9,3.5-7.4,8.3-7.4,14.7
			c0,5.5,1.7,9.6,5,12.2s7.8,4,13.3,4c8.6,0,15.6-2.4,21-7.1s8.2-11.9,8.2-21.4V100z"/>
		<path class="st0" d="M973.4,149.3c-8.7,0-16.3-1.8-22.9-5.4c-6.6-3.6-11.8-9-15.5-16.3c-3.7-7.3-5.5-16.6-5.5-27.7
			c0-11.7,1.9-21.2,5.8-28.6c3.9-7.4,9.3-12.9,16.1-16.5c6.9-3.6,14.6-5.4,23.4-5.4c4.8,0,9.4,0.5,13.9,1.5s8.2,2.2,11,3.6
			l-4.4,12.2c-2.9-1.2-6.3-2.2-10.2-3.2c-3.8-0.9-7.4-1.4-10.8-1.4c-6.7,0-12.2,1.4-16.7,4.3c-4.4,2.9-7.7,7.1-9.9,12.7
			c-2.2,5.6-3.3,12.4-3.3,20.6c0,7.8,1.1,14.4,3.2,20c2.1,5.5,5.3,9.7,9.6,12.6c4.2,2.9,9.6,4.4,16,4.4c5.1,0,9.7-0.5,13.8-1.6
			c4.1-1.1,7.8-2.4,11.2-3.8v13c-3.2,1.6-6.8,2.9-10.8,3.8S978.8,149.3,973.4,149.3z"/>
		<path class="st0" d="M1031,10.7v71c0,2.3-0.1,5.2-0.3,8.6c-0.2,3.4-0.3,6.3-0.4,8.9h0.6c1.2-1.5,3-3.8,5.4-6.8s4.4-5.4,6-7.2
			l32-34.1h17.1l-38.8,41.1l41.6,55.2h-17.6l-34-45.6l-11.7,10.7v34.9h-14.5V10.7H1031z"/>
		<path class="st0" d="M1142.6,49.6c11.5,0,20,2.6,25.6,7.7c5.6,5.2,8.3,13.4,8.3,24.7v65.5h-10.6l-2.8-14.2h-0.7
			c-2.7,3.5-5.5,6.5-8.4,8.8c-2.9,2.4-6.3,4.2-10.2,5.4c-3.8,1.2-8.5,1.8-14.1,1.8c-5.9,0-11.1-1-15.6-3.1
			c-4.5-2.1-8.1-5.2-10.7-9.3c-2.6-4.2-3.9-9.4-3.9-15.8c0-9.6,3.8-17,11.4-22.1c7.6-5.2,19.2-8,34.8-8.4l16.6-0.7v-5.9
			c0-8.3-1.8-14.2-5.4-17.5c-3.6-3.3-8.6-5-15.1-5c-5,0-9.8,0.7-14.4,2.2c-4.6,1.5-8.9,3.2-13,5.2l-4.5-11.1
			c4.3-2.2,9.3-4.1,14.9-5.7S1136.4,49.6,1142.6,49.6z M1162.1,100l-14.7,0.6c-12,0.5-20.5,2.4-25.4,5.9c-4.9,3.5-7.4,8.3-7.4,14.7
			c0,5.5,1.7,9.6,5,12.2s7.8,4,13.3,4c8.6,0,15.6-2.4,21-7.1s8.2-11.9,8.2-21.4V100z"/>
		<path class="st0" d="M1229,190.7c-12.7,0-22.4-2.4-29.3-7.1c-6.9-4.7-10.3-11.3-10.3-19.8c0-6,1.9-11.2,5.8-15.5
			c3.8-4.3,9.2-7.1,16-8.5c-2.5-1.2-4.7-2.9-6.5-5.3c-1.8-2.3-2.7-5-2.7-8.1c0-3.5,1-6.6,2.9-9.3c2-2.7,5-5.2,9-7.7
			c-5-2.1-9.1-5.5-12.3-10.4c-3.1-4.9-4.7-10.6-4.7-17.1c0-6.9,1.4-12.8,4.3-17.7c2.9-4.9,7-8.6,12.5-11.2c5.4-2.6,12-3.9,19.8-3.9
			c1.7,0,3.4,0.1,5.1,0.2c1.7,0.1,3.4,0.4,5,0.6s3,0.6,4.1,0.9h33v9.4l-17.8,2.2c1.8,2.3,3.2,5,4.4,8.3c1.2,3.2,1.8,6.8,1.8,10.7
			c0,9.6-3.3,17.2-9.8,22.9c-6.5,5.7-15.4,8.5-26.8,8.5c-2.7,0-5.4-0.2-8.3-0.7c-2.9,1.6-5.1,3.3-6.5,5.3s-2.2,4.2-2.2,6.7
			c0,1.9,0.6,3.4,1.7,4.5c1.1,1.1,2.8,1.9,5,2.4c2.2,0.5,4.8,0.7,7.8,0.7h17c10.5,0,18.5,2.2,24.1,6.6c5.6,4.4,8.4,10.8,8.4,19.2
			c0,10.7-4.3,18.8-13,24.5C1257.9,187.9,1245.4,190.7,1229,190.7z M1229.4,179.3c8,0,14.6-0.8,19.8-2.4c5.2-1.6,9.2-3.9,11.8-6.9
			c2.6-3,3.9-6.6,3.9-10.8c0-3.9-0.9-6.8-2.6-8.7c-1.8-2-4.3-3.3-7.7-4c-3.4-0.7-7.6-1-12.5-1h-16.7c-4.3,0-8.1,0.7-11.3,2
			c-3.2,1.3-5.7,3.3-7.4,6c-1.7,2.6-2.6,5.9-2.6,9.8c0,5.2,2.2,9.2,6.6,11.9S1221.3,179.3,1229.4,179.3z M1233.2,102.3
			c7,0,12.2-1.8,15.7-5.3s5.3-8.6,5.3-15.4c0-7.2-1.8-12.6-5.4-16.2c-3.6-3.6-8.8-5.4-15.8-5.4c-6.7,0-11.8,1.9-15.4,5.6
			c-3.6,3.7-5.4,9.2-5.4,16.3c0,6.6,1.8,11.6,5.4,15.1C1221.3,100.6,1226.5,102.3,1233.2,102.3z"/>
		<path class="st0" d="M1332.4,49.4c8.2,0,15.2,1.8,21.1,5.4c5.9,3.6,10.3,8.7,13.4,15.2c3.1,6.5,4.7,14.2,4.7,22.9v9.1h-66.5
			c0.2,11.3,3,19.9,8.4,25.8c5.4,5.9,13.1,8.9,23,8.9c6.1,0,11.5-0.6,16.2-1.7c4.7-1.1,9.5-2.8,14.6-4.9V143
			c-4.9,2.2-9.7,3.8-14.5,4.7c-4.8,1-10.4,1.5-16.9,1.5c-9.3,0-17.3-1.9-24.2-5.7c-6.9-3.8-12.2-9.3-16-16.7
			c-3.8-7.3-5.7-16.3-5.7-26.9c0-10.4,1.7-19.3,5.2-26.9c3.5-7.6,8.4-13.4,14.8-17.5C1316.3,51.5,1323.8,49.4,1332.4,49.4z
			 M1332.2,61.4c-7.8,0-14,2.5-18.6,7.6c-4.6,5.1-7.4,12.2-8.3,21.4h51c-0.1-5.7-1-10.8-2.7-15.2c-1.7-4.4-4.4-7.8-7.9-10.2
			C1342.3,62.6,1337.8,61.4,1332.2,61.4z"/>
		<path class="st0" d="M1492.9,147.5l-43.2-113.7h-0.7c0.2,2.4,0.4,5.3,0.6,8.8c0.2,3.5,0.3,7.2,0.4,11.3c0.1,4.1,0.2,8.2,0.2,12.4
			v81.2h-13.9V19h22.1l40.7,106.9h0.6L1541.1,19h22v128.5h-14.8V65.2c0-3.8,0.1-7.6,0.2-11.5c0.1-3.8,0.3-7.5,0.4-10.9
			s0.4-6.4,0.5-8.9h-0.7l-43.7,113.6H1492.9z"/>
		<path class="st0" d="M1627.6,49.6c11.5,0,20,2.6,25.6,7.7c5.6,5.2,8.3,13.4,8.3,24.7v65.5h-10.6l-2.8-14.2h-0.7
			c-2.7,3.5-5.5,6.5-8.4,8.8c-2.9,2.4-6.3,4.2-10.2,5.4c-3.8,1.2-8.5,1.8-14.1,1.8c-5.9,0-11.1-1-15.6-3.1
			c-4.5-2.1-8.1-5.2-10.7-9.3c-2.6-4.2-3.9-9.4-3.9-15.8c0-9.6,3.8-17,11.4-22.1c7.6-5.2,19.2-8,34.8-8.4l16.6-0.7v-5.9
			c0-8.3-1.8-14.2-5.4-17.5c-3.6-3.3-8.6-5-15.1-5c-5,0-9.8,0.7-14.4,2.2c-4.6,1.5-8.9,3.2-13,5.2l-4.5-11.1
			c4.3-2.2,9.3-4.1,14.9-5.7S1621.4,49.6,1627.6,49.6z M1647.1,100l-14.7,0.6c-12,0.5-20.5,2.4-25.4,5.9c-4.9,3.5-7.4,8.3-7.4,14.7
			c0,5.5,1.7,9.6,5,12.2s7.8,4,13.3,4c8.6,0,15.6-2.4,21-7.1s8.2-11.9,8.2-21.4V100z"/>
		<path class="st0" d="M1732.7,49.4c11.4,0,20.1,2.8,25.9,8.4c5.9,5.6,8.8,14.6,8.8,26.9v62.8H1753V85.7c0-8-1.8-14-5.5-18
			c-3.7-4-9.3-6-16.8-6c-10.7,0-18.2,3-22.5,9.1c-4.3,6-6.5,14.8-6.5,26.3v50.4h-14.6V51.2h11.8l2.2,13.9h0.8
			c2.1-3.4,4.7-6.3,7.8-8.6c3.2-2.3,6.7-4.1,10.6-5.3C1724.2,50,1728.4,49.4,1732.7,49.4z"/>
		<path class="st0" d="M1829,49.6c11.5,0,20,2.6,25.6,7.7c5.6,5.2,8.3,13.4,8.3,24.7v65.5h-10.6l-2.8-14.2h-0.7
			c-2.7,3.5-5.5,6.5-8.4,8.8c-2.9,2.4-6.3,4.2-10.2,5.4c-3.8,1.2-8.5,1.8-14.1,1.8c-5.9,0-11.1-1-15.6-3.1
			c-4.5-2.1-8.1-5.2-10.7-9.3c-2.6-4.2-3.9-9.4-3.9-15.8c0-9.6,3.8-17,11.4-22.1c7.6-5.2,19.2-8,34.8-8.4l16.6-0.7v-5.9
			c0-8.3-1.8-14.2-5.4-17.5c-3.6-3.3-8.6-5-15.1-5c-5,0-9.8,0.7-14.4,2.2c-4.6,1.5-8.9,3.2-13,5.2l-4.5-11.1
			c4.3-2.2,9.3-4.1,14.9-5.7S1822.8,49.6,1829,49.6z M1848.5,100l-14.7,0.6c-12,0.5-20.5,2.4-25.4,5.9c-4.9,3.5-7.4,8.3-7.4,14.7
			c0,5.5,1.7,9.6,5,12.2s7.8,4,13.3,4c8.6,0,15.6-2.4,21-7.1s8.2-11.9,8.2-21.4V100z"/>
		<path class="st0" d="M1915.4,190.7c-12.7,0-22.4-2.4-29.3-7.1c-6.9-4.7-10.3-11.3-10.3-19.8c0-6,1.9-11.2,5.8-15.5
			c3.8-4.3,9.2-7.1,16-8.5c-2.5-1.2-4.7-2.9-6.5-5.3c-1.8-2.3-2.7-5-2.7-8.1c0-3.5,1-6.6,2.9-9.3c2-2.7,5-5.2,9-7.7
			c-5-2.1-9.1-5.5-12.3-10.4c-3.1-4.9-4.7-10.6-4.7-17.1c0-6.9,1.4-12.8,4.3-17.7c2.9-4.9,7-8.6,12.5-11.2c5.4-2.6,12-3.9,19.8-3.9
			c1.7,0,3.4,0.1,5.1,0.2c1.7,0.1,3.4,0.4,5,0.6s3,0.6,4.1,0.9h33v9.4l-17.8,2.2c1.8,2.3,3.2,5,4.4,8.3c1.2,3.2,1.8,6.8,1.8,10.7
			c0,9.6-3.3,17.2-9.8,22.9c-6.5,5.7-15.4,8.5-26.8,8.5c-2.7,0-5.4-0.2-8.3-0.7c-2.9,1.6-5.1,3.3-6.5,5.3s-2.2,4.2-2.2,6.7
			c0,1.9,0.6,3.4,1.7,4.5c1.1,1.1,2.8,1.9,5,2.4c2.2,0.5,4.8,0.7,7.8,0.7h17c10.5,0,18.5,2.2,24.1,6.6c5.6,4.4,8.4,10.8,8.4,19.2
			c0,10.7-4.3,18.8-13,24.5C1944.3,187.9,1931.8,190.7,1915.4,190.7z M1915.8,179.3c8,0,14.6-0.8,19.8-2.4c5.2-1.6,9.2-3.9,11.8-6.9
			c2.6-3,3.9-6.6,3.9-10.8c0-3.9-0.9-6.8-2.6-8.7c-1.8-2-4.3-3.3-7.7-4c-3.4-0.7-7.6-1-12.5-1h-16.7c-4.3,0-8.1,0.7-11.3,2
			c-3.2,1.3-5.7,3.3-7.4,6c-1.7,2.6-2.6,5.9-2.6,9.8c0,5.2,2.2,9.2,6.6,11.9S1907.7,179.3,1915.8,179.3z M1919.6,102.3
			c7,0,12.2-1.8,15.7-5.3s5.3-8.6,5.3-15.4c0-7.2-1.8-12.6-5.4-16.2c-3.6-3.6-8.8-5.4-15.8-5.4c-6.7,0-11.8,1.9-15.4,5.6
			c-3.6,3.7-5.4,9.2-5.4,16.3c0,6.6,1.8,11.6,5.4,15.1C1907.7,100.6,1912.9,102.3,1919.6,102.3z"/>
		<path class="st0" d="M2018.8,49.4c8.2,0,15.2,1.8,21.1,5.4c5.9,3.6,10.3,8.7,13.4,15.2c3.1,6.5,4.7,14.2,4.7,22.9v9.1h-66.5
			c0.2,11.3,3,19.9,8.4,25.8c5.4,5.9,13.1,8.9,23,8.9c6.1,0,11.5-0.6,16.2-1.7c4.7-1.1,9.5-2.8,14.6-4.9V143
			c-4.9,2.2-9.7,3.8-14.5,4.7c-4.8,1-10.4,1.5-16.9,1.5c-9.3,0-17.3-1.9-24.2-5.7c-6.9-3.8-12.2-9.3-16-16.7
			c-3.8-7.3-5.7-16.3-5.7-26.9c0-10.4,1.7-19.3,5.2-26.9c3.5-7.6,8.4-13.4,14.8-17.5C2002.7,51.5,2010.2,49.4,2018.8,49.4z
			 M2018.6,61.4c-7.8,0-14,2.5-18.6,7.6c-4.6,5.1-7.4,12.2-8.3,21.4h51c-0.1-5.7-1-10.8-2.7-15.2c-1.7-4.4-4.4-7.8-7.9-10.2
			C2028.7,62.6,2024.1,61.4,2018.6,61.4z"/>
		<path class="st0" d="M2122.1,49.4c1.9,0,4,0.1,6.1,0.3c2.1,0.2,4,0.5,5.6,0.8l-1.8,13.5c-1.6-0.4-3.3-0.7-5.3-1
			c-1.9-0.2-3.8-0.4-5.4-0.4c-3.9,0-7.5,0.8-10.9,2.3c-3.4,1.6-6.4,3.8-9,6.7c-2.6,2.9-4.6,6.4-6.1,10.5c-1.5,4.1-2.2,8.6-2.2,13.6
			v51.7h-14.7V51.2h12.1l1.6,17.8h0.6c2-3.6,4.4-6.8,7.2-9.8c2.8-3,6.1-5.3,9.8-7.1C2113.3,50.3,2117.5,49.4,2122.1,49.4z"/>
	</g>
</g>
</svg>
